<svg width="237" height="45" viewBox="0 0 237 45" fill="none" xmlns="http://www.w3.org/2000/svg">
<path opacity="0.25" d="M105.535 22.5C105.535 34.4475 96.5797 44 85.6909 44C74.8021 44 65.8472 34.4475 65.8472 22.5C65.8472 10.5525 74.8021 1 85.6909 1C96.5797 1 105.535 10.5525 105.535 22.5Z" stroke="white" stroke-width="2"/>
<path d="M84.0223 29.393L84.0034 23.0961H81.522V20.3974H84.0034V18.5983C84.0034 16.1702 85.3859 15 87.3776 15C88.3316 15 89.1515 15.0772 89.3904 15.1118V17.6493L88.0091 17.65C86.926 17.65 86.7163 18.2097 86.7163 19.0312V20.3974H89.7933L88.9662 23.0961H86.7163V29.393H84.0223Z" fill="white"/>
<path opacity="0.25" d="M235.229 22.5C235.229 34.4475 226.274 44 215.385 44C204.496 44 195.542 34.4475 195.542 22.5C195.542 10.5525 204.496 1 215.385 1C226.274 1 235.229 10.5525 235.229 22.5Z" stroke="white" stroke-width="2"/>
<path fill-rule="evenodd" clip-rule="evenodd" d="M221.653 17.3431C222.288 17.5244 222.788 18.0559 222.958 18.7295C223.274 19.9588 223.26 22.522 223.26 22.522C223.26 22.522 223.257 25.071 222.951 26.2996C222.778 26.9724 222.276 27.5031 221.642 27.6836C220.482 28.0055 215.843 28 215.843 28C215.843 28 211.215 27.9945 210.044 27.6569C209.408 27.4756 208.909 26.9441 208.738 26.2713C208.435 25.0545 208.438 22.4921 208.438 22.4921C208.438 22.4921 208.44 19.9423 208.746 18.713C208.918 18.0402 209.432 17.4969 210.054 17.3172C211.215 16.9945 215.854 17 215.854 17C215.854 17 220.494 17.0055 221.653 17.3431ZM214.373 20.1441L214.37 24.8543L218.23 22.5031L214.373 20.1441Z" fill="white"/>
<path opacity="0.25" d="M170.382 22.5C170.382 34.4475 161.427 44 150.538 44C139.649 44 130.694 34.4475 130.694 22.5C130.694 10.5525 139.649 1 150.538 1C161.427 1 170.382 10.5525 170.382 22.5Z" stroke="white" stroke-width="2"/>
<path d="M153.658 19.9423C154.057 19.9423 154.381 19.5931 154.381 19.1623C154.381 18.7315 154.057 18.3823 153.658 18.3823C153.259 18.3823 152.936 18.7315 152.936 19.1623C152.936 19.5931 153.259 19.9423 153.658 19.9423Z" fill="white"/>
<path fill-rule="evenodd" clip-rule="evenodd" d="M147.527 22.5C147.527 24.2924 148.878 25.75 150.538 25.75C152.199 25.75 153.549 24.2924 153.549 22.5C153.549 20.7076 152.199 19.25 150.538 19.25C148.878 19.25 147.527 20.7076 147.527 22.5ZM149.033 22.5C149.033 21.6038 149.708 20.875 150.538 20.875C151.368 20.875 152.043 21.6038 152.043 22.5C152.043 23.3962 151.368 24.125 150.538 24.125C149.708 24.125 149.033 23.3962 149.033 22.5Z" fill="white"/>
<path fill-rule="evenodd" clip-rule="evenodd" d="M147.527 29H153.549C155.096 29 156.56 27.4205 156.56 25.75V19.25C156.56 17.5795 155.096 16 153.549 16H147.527C145.98 16 144.517 17.5795 144.517 19.25V25.75C144.517 27.4205 145.98 29 147.527 29ZM146.022 19.25C146.022 18.4903 146.824 17.625 147.527 17.625H153.549C154.253 17.625 155.054 18.4903 155.054 19.25V25.75C155.054 26.5097 154.253 27.375 153.549 27.375H147.527C146.81 27.375 146.022 26.5243 146.022 25.75V19.25Z" fill="white"/>
<path opacity="0.25" d="M40.5625 22.5C40.5625 34.3876 31.6547 43.875 20.8438 43.875C10.0328 43.875 1.125 34.3876 1.125 22.5C1.125 10.6124 10.0328 1.125 20.8438 1.125C31.6547 1.125 40.5625 10.6124 40.5625 22.5Z" stroke="white" stroke-width="2.25"/>
<path d="M16.3855 19.375C17.2489 19.375 17.9488 18.6195 17.9488 17.6875C17.9488 16.7555 17.2489 16 16.3855 16C15.5222 16 14.8223 16.7555 14.8223 17.6875C14.8223 18.6195 15.5222 19.375 16.3855 19.375Z" fill="white"/>
<path d="M17.6883 20.5H15.0828C14.939 20.5 14.8223 20.626 14.8223 20.7812V29.2188C14.8223 29.374 14.939 29.5 15.0828 29.5H17.6883C17.8321 29.5 17.9488 29.374 17.9488 29.2188V20.7812C17.9488 20.626 17.8321 20.5 17.6883 20.5Z" fill="white"/>
<path d="M25.4512 20.1125C24.3376 19.7007 22.9447 20.0624 22.1094 20.711C22.0808 20.59 21.9786 20.5 21.8572 20.5H19.2518C19.1079 20.5 18.9912 20.626 18.9912 20.7813V29.2188C18.9912 29.374 19.1079 29.5 19.2518 29.5H21.8572C22.001 29.5 22.1178 29.374 22.1178 29.2188V23.155C22.5388 22.7635 23.0813 22.6387 23.5252 22.8423C23.9557 23.0386 24.2021 23.5178 24.2021 24.1563V29.2188C24.2021 29.374 24.3189 29.5 24.4627 29.5H27.0682C27.212 29.5 27.3287 29.374 27.3287 29.2188V23.5898C27.299 21.2785 26.2917 20.423 25.4512 20.1125Z" fill="white"/>
</svg>
