<svg width="17" height="20" viewBox="0 0 17 20" fill="none" xmlns="http://www.w3.org/2000/svg">
<path d="M12.48 0.86499C12.48 0.732382 12.5327 0.605205 12.6264 0.511437C12.7202 0.417669 12.8474 0.36499 12.98 0.36499C13.1126 0.36499 13.2398 0.417669 13.3335 0.511437C13.4273 0.605205 13.48 0.732382 13.48 0.86499V3.36499H15.98C16.1126 3.36499 16.2398 3.41767 16.3335 3.51144C16.4273 3.60521 16.48 3.73238 16.48 3.86499C16.48 3.9976 16.4273 4.12478 16.3335 4.21854C16.2398 4.31231 16.1126 4.36499 15.98 4.36499H13.48V6.86499C13.48 6.9976 13.4273 7.12478 13.3335 7.21854C13.2398 7.31231 13.1126 7.36499 12.98 7.36499C12.8474 7.36499 12.7202 7.31231 12.6264 7.21854C12.5327 7.12478 12.48 6.9976 12.48 6.86499V4.36499H9.97998C9.84737 4.36499 9.72019 4.31231 9.62643 4.21854C9.53266 4.12478 9.47998 3.9976 9.47998 3.86499C9.47998 3.73238 9.53266 3.60521 9.62643 3.51144C9.72019 3.41767 9.84737 3.36499 9.97998 3.36499H12.48V0.86499ZM1.47998 5.36499C1.47998 5.09977 1.58534 4.84542 1.77287 4.65788C1.96041 4.47035 2.21476 4.36499 2.47998 4.36499H5.97998C6.11259 4.36499 6.23977 4.31231 6.33353 4.21854C6.4273 4.12478 6.47998 3.9976 6.47998 3.86499C6.47998 3.73238 6.4273 3.60521 6.33353 3.51144C6.23977 3.41767 6.11259 3.36499 5.97998 3.36499H2.47998C1.94955 3.36499 1.44084 3.5757 1.06577 3.95078C0.690694 4.32585 0.47998 4.83456 0.47998 5.36499V19.365C0.47998 19.4578 0.505838 19.5489 0.554655 19.6279C0.603472 19.7068 0.673321 19.7707 0.756374 19.8122C0.839427 19.8537 0.932402 19.8713 1.02488 19.863C1.11736 19.8546 1.2057 19.8207 1.27998 19.765L6.97998 15.365L12.68 19.765C12.7543 19.8207 12.8426 19.8546 12.9351 19.863C13.0276 19.8713 13.1205 19.8537 13.2036 19.8122C13.2866 19.7707 13.3565 19.7068 13.4053 19.6279C13.4541 19.5489 13.48 19.4578 13.48 19.365V10.865C13.48 10.7324 13.4273 10.6052 13.3335 10.5114C13.2398 10.4177 13.1126 10.365 12.98 10.365C12.8474 10.365 12.7202 10.4177 12.6264 10.5114C12.5327 10.6052 12.48 10.7324 12.48 10.865V18.345L7.27998 14.345C7.19343 14.2801 7.08817 14.245 6.97998 14.245C6.8718 14.245 6.76653 14.2801 6.67998 14.345L1.47998 18.345V5.36499Z" fill="#242424"/>
</svg>
